HIERARCHY
ROOT SimulationBone
{
	OFFSET 0.000000 0.000000 0.000000
	CHANNELS 6 Xposition Yposition Zposition Zrotation Yrotation Xrotation 
	JOINT Hips
	{
		OFFSET 0.000000 0.000000 0.000000
		CHANNELS 6 Xposition Yposition Zposition Zrotation Yrotation Xrotation 
		JOINT LeftUpLeg
		{
			OFFSET 0.103456 1.857826 10.548504
			CHANNELS 3 Zrotation Yrotation Xrotation
			JOINT LeftLeg
			{
				OFFSET 43.499996 -0.000038 0.000006
				CHANNELS 3 Zrotation Yrotation Xrotation
				JOINT LeftFoot
				{
					OFFSET 42.372192 0.000011 -0.000004
					CHANNELS 3 Zrotation Yrotation Xrotation
					JOINT LeftToe
					{
						OFFSET 17.300018 0.000006 0.000004
						CHANNELS 3 Zrotation Yrotation Xrotation
						End Site
						{
							OFFSET 0.000000 0.000000 0.000000
						}
					}
				}
			}
		}
		JOINT RightUpLeg
		{
			OFFSET 0.103455 1.857819 -10.548502
			CHANNELS 3 Zrotation Yrotation Xrotation
			JOINT RightLeg
			{
				OFFSET 43.500038 -0.000031 0.000011
				CHANNELS 3 Zrotation Yrotation Xrotation
				JOINT RightFoot
				{
					OFFSET 42.372261 -0.000008 0.000014
					CHANNELS 3 Zrotation Yrotation Xrotation
					JOINT RightToe
					{
						OFFSET 17.299999 -0.000004 0.000004
						CHANNELS 3 Zrotation Yrotation Xrotation
						End Site
						{
							OFFSET 0.000000 0.000000 0.000000
						}
					}
				}
			}
		}
		JOINT Spine
		{
			OFFSET 6.901965 -2.603737 -0.000000
			CHANNELS 3 Zrotation Yrotation Xrotation
			JOINT Spine1
			{
				OFFSET 12.588105 0.000013 0.000001
				CHANNELS 3 Zrotation Yrotation Xrotation
				JOINT Spine2
				{
					OFFSET 12.343203 0.000010 -0.000000
					CHANNELS 3 Zrotation Yrotation Xrotation
					JOINT Neck
					{
						OFFSET 25.832893 -0.000038 0.000001
						CHANNELS 3 Zrotation Yrotation Xrotation
						JOINT Head
						{
							OFFSET 11.766606 0.000028 0.000001
							CHANNELS 3 Zrotation Yrotation Xrotation
							End Site
							{
								OFFSET 0.000000 0.000000 0.000000
							}
						}
					}
					JOINT LeftShoulder
					{
						OFFSET 19.745897 -1.480375 6.000107
						CHANNELS 3 Zrotation Yrotation Xrotation
						JOINT LeftArm
						{
							OFFSET 11.284126 -0.000009 -0.000017
							CHANNELS 3 Zrotation Yrotation Xrotation
							JOINT LeftForeArm
							{
								OFFSET 33.000046 0.000006 0.000030
								CHANNELS 3 Zrotation Yrotation Xrotation
								JOINT LeftHand
								{
									OFFSET 25.200006 0.000034 0.000015
									CHANNELS 3 Zrotation Yrotation Xrotation
									End Site
									{
										OFFSET 0.000000 0.000000 0.000000
									}
								}
							}
						}
					}
					JOINT RightShoulder
					{
						OFFSET 19.746096 -1.480394 -6.000075
						CHANNELS 3 Zrotation Yrotation Xrotation
						JOINT RightArm
						{
							OFFSET 11.284135 -0.000006 -0.000006
							CHANNELS 3 Zrotation Yrotation Xrotation
							JOINT RightForeArm
							{
								OFFSET 33.000095 0.000018 0.000006
								CHANNELS 3 Zrotation Yrotation Xrotation
								JOINT RightHand
								{
									OFFSET 25.199783 0.000116 0.000436
									CHANNELS 3 Zrotation Yrotation Xrotation
									End Site
									{
										OFFSET 0.000000 0.000000 0.000000
									}
								}
							}
						}
					}
				}
			}
		}
	}
}
MOTION
Frames: 9
Frame Time: 0.033333
-1.310430 0.000000 37.953673 0.000000 213.631876 0.000000 2.006353 91.047493 -0.083039 96.795700 -2.545849 -179.598961 173.445086 -2.667295 158.385065 -22.788479 -2.778878 -24.566882 79.579456 15.547145 -7.907629 21.454558 0.003119 0.000019 -171.235957 12.768600 -153.698900 -22.655234 -0.388836 6.422488 85.451568 -2.213518 11.814711 21.454551 -0.003092 0.000000 8.111240 -1.476333 0.498247 6.199800 -2.977038 0.917293 5.881270 -2.971584 0.935259 -5.130550 2.114691 3.460432 -6.137860 3.098684 3.276150 139.454131 -74.400848 40.073895 -5.725322 49.385509 9.597972 -49.677369 -17.374620 1.927985 10.269242 -9.376971 22.919092 169.907403 77.055086 -8.877017 -15.349440 -58.903032 -25.634279 -47.057951 15.860271 -1.714985 8.629464 9.746740 -6.743468 
-1.184594 0.000000 36.697437 0.000000 212.160446 0.000000 2.019038 91.001671 0.116618 96.984232 -2.522665 -179.756438 173.254346 -3.757205 157.729026 -23.003450 -2.660989 -24.976718 78.610922 15.671941 -8.566744 21.454560 0.003098 0.000017 -170.833099 12.064698 -152.249015 -20.933063 -0.217665 4.778633 86.828486 -1.400518 10.677491 21.454553 -0.003092 0.000000 8.106939 -1.360585 0.428881 6.193385 -2.742008 0.784835 5.874941 -2.737353 0.801393 -5.000349 2.552095 4.152393 -6.095531 2.781162 4.179481 139.738895 -74.439616 39.781617 -5.285624 49.351262 9.239373 -49.215570 -17.579111 1.926597 10.351630 -9.595045 22.767317 170.498310 76.816064 -8.282768 -15.229365 -58.989926 -25.937024 -46.379648 15.923188 -1.698497 8.789877 9.737057 -6.276172 
-1.094814 0.000000 35.469479 0.000000 210.691919 0.000000 1.995616 90.966461 0.433997 97.189582 -1.992921 -179.717865 172.906772 -5.604708 157.466487 -23.677998 -2.792613 -25.403053 77.769333 15.799744 -9.285404 21.454560 0.003112 0.000017 -170.603318 10.840801 -153.674106 -19.601019 0.754559 4.463628 87.535923 -1.410027 9.883413 21.454558 -0.003092 0.000000 8.136103 -1.115133 0.339817 6.254455 -2.246858 0.619209 5.936110 -2.243218 0.632774 -4.893329 2.990544 4.862435 -6.096245 2.308422 5.140076 140.127533 -74.470775 39.384490 -4.787067 49.790494 9.153884 -48.240079 -17.784662 1.908938 10.557419 -9.834771 22.584364 171.063495 76.609861 -7.713298 -14.849096 -59.041398 -26.531639 -45.403051 16.108417 -1.681455 9.147873 9.737644 -5.448142 
-1.042862 0.000000 34.280932 0.000000 209.231843 0.000000 1.917911 90.808472 0.880575 97.301415 -0.699011 -179.332182 171.816264 -8.763899 157.734818 -25.781847 -3.390971 -25.697943 77.527940 15.867146 -9.960065 21.454560 0.003117 0.000019 -170.890295 8.761202 -157.033753 -19.038413 2.092257 5.402707 87.972331 -2.323043 8.730439 21.454551 -0.003092 0.000000 8.169452 -0.687820 0.224575 6.324044 -1.386777 0.411402 6.005847 -1.384399 0.419771 -4.805756 3.549311 5.531288 -6.152505 1.642399 6.148076 140.520706 -74.502652 38.982516 -4.218411 50.557139 9.670341 -46.897933 -17.860969 1.871770 10.884984 -10.066475 22.262722 171.839596 76.403562 -6.927989 -14.226818 -58.894378 -27.252397 -44.148208 16.103090 -1.644333 9.545501 9.783385 -4.538609 
-1.028393 0.000000 33.145741 0.000000 207.780246 0.000000 1.728862 90.375031 1.403823 97.272997 1.078726 -178.717776 169.671010 -12.844696 158.418574 -29.479930 -4.198361 -25.822536 77.879948 15.862874 -10.514532 21.454553 0.003109 0.000017 -171.918074 6.157592 -160.496386 -19.566188 3.091677 6.491896 88.895868 -3.326100 7.635095 21.454550 -0.003092 0.000000 8.200555 -0.138571 0.092008 6.388084 -0.281935 0.176248 6.069975 -0.281003 0.177941 -4.837450 4.255628 6.157617 -6.233691 0.832576 7.201155 140.602982 -74.561699 38.894311 -3.434633 51.579359 11.036426 -45.522412 -17.715357 1.819986 11.316252 -10.140359 21.872576 172.845109 76.205479 -5.907458 -13.558191 -58.468141 -28.003719 -42.574871 15.884337 -1.585259 9.955496 9.802072 -3.646650 
-1.048736 0.000000 32.082612 0.000000 206.331816 0.000000 1.487141 89.842346 1.845969 97.287425 2.982823 -178.090470 167.164632 -16.852706 159.467186 -33.442689 -4.659615 -25.826805 78.069383 15.822861 -10.786166 21.454557 0.003112 0.000017 -173.232708 3.545106 -162.998175 -20.740177 3.765811 7.118427 89.926851 -3.978212 6.556145 21.454553 -0.003092 0.000000 8.271107 0.462750 -0.046679 6.529303 0.927428 -0.067267 6.211162 0.926872 -0.072871 -4.985139 5.001503 6.808627 -6.435507 -0.066623 8.320878 140.526498 -74.493376 38.977315 -2.219212 52.786714 13.320543 -44.459020 -17.481371 1.772796 11.711141 -9.693808 21.714495 173.886248 76.012158 -4.849475 -13.117179 -57.738861 -28.802269 -40.593979 15.714057 -1.520067 10.468570 9.631726 -2.627272 
-1.103673 0.000000 31.109015 0.000000 204.873309 0.000000 1.292108 89.379951 2.094309 97.523017 4.439777 -177.612956 165.400161 -19.476696 160.958476 -36.022049 -4.486277 -26.273528 78.100324 16.239478 -10.311690 21.454560 0.003107 0.000016 -174.322752 1.612794 -164.536470 -22.096335 4.299010 7.197782 90.855777 -4.225267 5.495348 21.454553 -0.003092 0.000000 8.410681 0.987934 -0.198346 6.806602 1.985827 -0.338456 6.488301 1.983606 -0.350450 -5.004714 5.696871 7.532283 -6.928542 -1.046732 9.526268 140.782015 -74.137045 38.745184 -0.567984 54.111525 16.329778 -43.540844 -17.416923 1.741704 11.772351 -8.463940 22.056083 174.875096 75.719655 -3.847255 -13.022116 -56.726896 -29.380062 -37.990209 15.624649 -1.447090 11.058205 9.320227 -1.420090 
-1.195822 0.000000 30.234556 0.000000 203.389740 0.000000 1.196994 89.236847 2.130266 97.895417 4.860898 -177.326066 164.971444 -19.878909 163.164408 -36.599671 -3.972929 -26.766980 78.570002 16.623048 -10.198467 21.454560 0.003114 0.000020 -174.875779 0.741104 -165.449926 -22.873216 4.525671 6.972711 91.281305 -4.209556 4.604490 21.454553 -0.003092 0.000000 8.569467 1.283684 -0.372251 7.120391 2.587807 -0.665156 6.801954 2.583602 -0.680790 -4.657999 6.387979 8.286151 -7.559477 -2.064198 10.772888 141.225608 -73.697482 38.328170 1.113402 55.805125 19.445421 -42.170247 -17.531163 1.710096 11.516388 -6.478460 22.986319 176.068794 75.223120 -2.639592 -13.104322 -55.680559 -29.086391 -34.614487 15.340837 -1.348447 11.649832 9.197399 -0.257549 
-1.327736 0.000000 29.473937 0.000000 201.874198 0.000000 1.205105 89.315628 1.928433 98.164757 4.445418 -177.211019 165.506589 -18.625306 166.747252 -36.028377 -3.604792 -25.577392 79.909129 15.817982 -10.324721 21.454558 0.003109 0.000018 -175.223599 0.750395 -166.030902 -23.308801 4.385396 6.568809 91.411919 -4.010055 4.040007 21.454553 -0.003092 0.000000 8.654951 1.371872 -0.522206 7.287580 2.773840 -0.957427 6.969128 2.767874 -0.974176 -4.033456 7.102983 8.978325 -7.777142 -3.019915 11.927792 141.258011 -73.554416 38.306406 2.568623 58.210622 22.002918 -40.168664 -17.596721 1.659410 11.553154 -3.692943 24.461505 177.729350 74.628409 -0.954237 -12.757763 -54.963502 -27.854833 -30.799440 14.899487 -1.238911 12.386803 9.539568 0.639037 
